<svg width="128" height="128" viewBox="0 0 128 128" fill="none" xmlns="http://www.w3.org/2000/svg">
<path d="M73.76 89.08H54.23V108.41C54.23 113.26 58.21 117.19 63.11 117.19H64.88C69.78 117.19 73.76 113.26 73.76 108.41V89.08V89.08ZM91.33 50.41H36.67C30.78 50.41 25.96 55.55 25.96 61.82C25.96 68.1 30.78 73.23 36.67 73.23H91.32C97.21 73.23 102.03 68.09 102.03 61.82C102.04 55.55 97.22 50.41 91.33 50.41V50.41Z" fill="#7A4C32"/>
<path d="M64 11.05C46.6 11.05 30.48 29.66 30.48 56.44C30.48 83.08 47.09 96.25 64 96.25C80.91 96.25 97.52 83.08 97.52 56.44C97.52 29.66 81.4 11.05 64 11.05V11.05Z" fill="#A56C43"/>
<path d="M47.56 63.89C50.2828 63.89 52.49 61.6067 52.49 58.79C52.49 55.9734 50.2828 53.69 47.56 53.69C44.8372 53.69 42.63 55.9734 42.63 58.79C42.63 61.6067 44.8372 63.89 47.56 63.89Z" fill="#42312C"/>
<path d="M80.44 63.89C83.1628 63.89 85.37 61.6067 85.37 58.79C85.37 55.9734 83.1628 53.69 80.44 53.69C77.7172 53.69 75.51 55.9734 75.51 58.79C75.51 61.6067 77.7172 63.89 80.44 63.89Z" fill="#42312C"/>
<path d="M67.86 68.04C67.75 68 67.65 67.97 67.54 67.96H60.47C60.36 67.97 60.25 68 60.15 68.04C59.51 68.3 59.16 68.96 59.46 69.67C59.76 70.38 61.17 72.36 64.01 72.36C66.85 72.36 68.26 70.37 68.56 69.67C68.85 68.96 68.5 68.3 67.86 68.04Z" fill="#875334"/>
<path d="M72.42 76.12C69.23 78.01 58.79 78.01 55.61 76.12C53.78 75.03 51.91 76.7 52.67 78.36C53.42 79.99 59.12 83.78 64.04 83.78C68.96 83.78 74.59 79.99 75.34 78.36C76.09 76.7 74.25 75.03 72.42 76.12Z" fill="#473530"/>
<path d="M64.02 5.03H63.98C18.54 5.27 27.85 55.17 27.85 55.17C27.85 55.17 29.89 60.52 30.82 62.88C30.95 63.22 31.45 63.18 31.53 62.83C32.5 58.49 35.99 43.1 37.75 38.42C38.2528 37.0866 39.2084 35.9724 40.4496 35.2722C41.6909 34.5721 43.1387 34.3306 44.54 34.59C49 35.4 56.09 36.4 63.92 36.4H64.08C71.9 36.4 79 35.4 83.45 34.59C86.35 34.06 89.21 35.67 90.24 38.42C91.99 43.08 95.46 58.38 96.44 62.78C96.52 63.14 97.02 63.17 97.15 62.83L100.13 55.16C100.15 55.17 109.45 5.27 64.02 5.03V5.03Z" fill="#3C2C23"/>
<path d="M100.15 55.17C100.15 55.17 109.46 5.27 64.02 5.03H63.98C63.27 5.03 62.58 5.05 61.9 5.08C60.55 5.14 59.24 5.24 57.98 5.39H57.94C57.85 5.4 57.77 5.42 57.68 5.43C19.43 10.24 27.84 55.17 27.84 55.17L30.82 62.85C30.95 63.19 31.44 63.16 31.52 62.8C32.5 58.41 35.98 43.09 37.74 38.43C38.2439 37.0952 39.2012 35.9801 40.4444 35.28C41.6875 34.5798 43.1373 34.3391 44.54 34.6C49 35.4 56.09 36.4 63.92 36.4H64.08C71.9 36.4 79 35.4 83.45 34.59C86.35 34.06 89.21 35.67 90.24 38.42C92 43.1 95.49 58.52 96.45 62.84C96.53 63.2 97.02 63.23 97.15 62.89C98.09 60.54 100.15 55.17 100.15 55.17V55.17Z" fill="url(#paint0_radial_20_53)"/>
<path d="M40.01 50.72C43 46.49 49.79 46.09 53.68 49.24C54.3 49.74 55.12 50.44 55.36 51.22C55.76 52.49 54.54 53.48 53.35 53.18C52.59 52.99 51.88 52.58 51.13 52.35C49.76 51.92 48.77 51.8 47.54 51.8C45.72 51.79 44.55 52.02 42.82 52.72C42.11 53.01 41.53 53.47 40.72 53.13C39.79 52.74 39.45 51.56 40.01 50.72V50.72ZM86.07 53.12C85.78 52.99 85.5 52.83 85.21 52.71C83.43 51.97 82.42 51.78 80.49 51.79C78.79 51.8 77.78 52.03 76.45 52.48C75.64 52.76 74.61 53.46 73.71 53.19C72.39 52.79 72.43 51.35 73.15 50.43C74.01 49.35 75.19 48.53 76.44 47.99C79.34 46.73 82.88 46.91 85.61 48.54C86.5 49.07 87.47 49.8 88.01 50.72C88.79 52.03 87.61 53.75 86.07 53.12V53.12Z" fill="#42312C"/>
<path d="M116.5 54.28C115.26 54.28 114.25 55.24 114.25 56.42V65.62C114.25 66.8 115.26 67.76 116.5 67.76C117.74 67.76 118.75 66.8 118.75 65.62V56.42C118.75 55.24 117.74 54.28 116.5 54.28ZM112 54.28C110.76 54.28 109.75 55.24 109.75 56.42V65.62C109.75 66.8 110.76 67.76 112 67.76C113.24 67.76 114.25 66.8 114.25 65.62V56.42C114.25 55.24 113.24 54.28 112 54.28Z" fill="#E8AD00"/>
<path d="M114.25 54.28C113.01 54.28 112 55.24 112 56.42V67.61C112 68.79 113.01 69.75 114.25 69.75C115.49 69.75 116.5 68.79 116.5 67.61V56.42C116.5 55.24 115.49 54.28 114.25 54.28Z" fill="#FFCA28"/>
<path d="M114.25 55.68C115.774 55.68 117.01 54.5025 117.01 53.05C117.01 51.5975 115.774 50.42 114.25 50.42C112.726 50.42 111.49 51.5975 111.49 53.05C111.49 54.5025 112.726 55.68 114.25 55.68Z" fill="#FFCA28"/>
<path d="M114.25 53.02C113.7 53.02 113.25 52.57 113.25 52.02V14.02C113.25 13.47 113.7 13.02 114.25 13.02C114.8 13.02 115.25 13.47 115.25 14.02V52.02C115.25 52.58 114.8 53.02 114.25 53.02Z" fill="#504F4F"/>
<path d="M116 12.98C85.17 5.23 64 4.98 64 4.98C64 4.98 42.83 5.23 12 12.98V13.75C12 15.08 12.87 16.25 14.14 16.62C17.86 17.72 27.27 20.15 32.32 21.16C32.24 21.24 31.22 23.03 30.49 24.69C30.49 24.69 38.63 30.41 64.01 32.97C89.39 30.41 97.77 25.39 97.77 25.39C96.89 23.58 95.98 21.9 95.98 21.9C100.48 21.16 110.21 17.83 113.93 16.64C115.18 16.24 116.02 15.09 116.02 13.78V12.98H116Z" fill="url(#paint1_linear_20_53)"/>
<path d="M64 4.98C64 4.98 42.83 5.23 12 12.98C12 12.98 47.41 22.65 64 22.36C80.59 22.65 116 12.98 116 12.98C85.17 5.23 64 4.98 64 4.98V4.98Z" fill="url(#paint2_linear_20_53)"/>
<path opacity="0.4" d="M116 12.98C85.17 5.23 64 4.98 64 4.98C64 4.98 42.83 5.23 12 12.98V13.75C12 15.08 12.87 16.25 14.14 16.62C17.86 17.72 27.27 20.31 32.32 21.33C32.32 21.33 31.36 22.89 30.49 24.86C30.49 24.86 38.63 30.41 64.01 32.98C89.39 30.42 97.77 25.4 97.77 25.4C96.89 23.59 95.98 21.91 95.98 21.91C100.48 21.17 110.21 17.84 113.93 16.65C115.18 16.25 116.02 15.1 116.02 13.79V12.98H116Z" fill="url(#paint3_linear_20_53)"/>
<path d="M114.5 120.99C114.5 106.38 92.75 99.45 73.78 97.89L65.18 108.92C64.9 109.28 64.46 109.5 64 109.5C63.54 109.5 63.1 109.29 62.82 108.92L54.2 97.87C43.65 98.68 13.49 102.62 13.49 120.99V124H114.49L114.5 120.99V120.99Z" fill="#212121"/>
<path d="M114.5 120.99C114.5 106.38 92.75 99.45 73.78 97.89L65.18 108.92C64.9 109.28 64.46 109.5 64 109.5C63.54 109.5 63.1 109.29 62.82 108.92L54.2 97.87C43.65 98.68 13.49 102.62 13.49 120.99V124H114.49L114.5 120.99V120.99Z" fill="url(#paint4_radial_20_53)"/>
<defs>
<radialGradient id="paint0_radial_20_53" cx="0" cy="0" r="1" gradientUnits="userSpaceOnUse" gradientTransform="translate(64.001 46.6645) scale(37.873 42.7283)">
<stop offset="0.794" stop-color="#554138" stop-opacity="0"/>
<stop offset="1" stop-color="#554138"/>
</radialGradient>
<linearGradient id="paint1_linear_20_53" x1="64" y1="0.648995" x2="64" y2="29.29" gradientUnits="userSpaceOnUse">
<stop offset="0.003" stop-color="#424242"/>
<stop offset="0.472" stop-color="#353535"/>
<stop offset="1" stop-color="#212121"/>
</linearGradient>
<linearGradient id="paint2_linear_20_53" x1="64" y1="0.815996" x2="64" y2="31.816" gradientUnits="userSpaceOnUse">
<stop offset="0.003" stop-color="#616161"/>
<stop offset="0.324" stop-color="#505050"/>
<stop offset="0.955" stop-color="#242424"/>
<stop offset="1" stop-color="#212121"/>
</linearGradient>
<linearGradient id="paint3_linear_20_53" x1="13.893" y1="18.983" x2="114.721" y2="18.983" gradientUnits="userSpaceOnUse">
<stop offset="0.001" stop-color="#BFBEBE"/>
<stop offset="0.3" stop-color="#212121" stop-opacity="0"/>
<stop offset="0.7" stop-color="#212121" stop-opacity="0"/>
<stop offset="1" stop-color="#BFBEBE"/>
</linearGradient>
<radialGradient id="paint4_radial_20_53" cx="0" cy="0" r="1" gradientUnits="userSpaceOnUse" gradientTransform="translate(64 122.603) scale(54.167 28.4214)">
<stop offset="0.598" stop-color="#212121"/>
<stop offset="1" stop-color="#616161"/>
</radialGradient>
</defs>
</svg>
