<svg width="128" height="128" viewBox="0 0 128 128" fill="none" xmlns="http://www.w3.org/2000/svg">
<path d="M26.84 113.53C20.33 91.19 20.33 45.39 20.33 45.39L104.33 45.06C104.33 45.06 104.33 86.55 99.45 113.25L26.84 113.53V113.53Z" fill="#312D2D"/>
<path d="M18.76 118.09V127.98H105.9V118.09C105.9 102.92 84.51 95.22 62.66 95.25C40.94 95.28 18.76 102.03 18.76 118.09V118.09Z" fill="#424242"/>
<path d="M62.33 85.61C85.5259 85.61 104.33 67.9252 104.33 46.11C104.33 24.2948 85.5259 6.61 62.33 6.61C39.134 6.61 20.33 24.2948 20.33 46.11C20.33 67.9252 39.134 85.61 62.33 85.61Z" fill="#312D2D"/>
<path d="M62.33 90.25H53.25V99.84C53.25 104.18 56.95 107.7 61.51 107.7H63.16C67.72 107.7 71.42 104.18 71.42 99.84V90.25H62.33Z" fill="#DBA689"/>
<path d="M62.33 13.57C37.98 13.57 31.61 32.44 31.61 58.96C31.61 85.47 50.5 93.56 62.33 93.56C74.16 93.56 93.05 85.47 93.05 58.96C93.05 32.45 86.67 13.57 62.33 13.57Z" fill="#FADCBC"/>
<path d="M71.66 78.11H53.2C52.14 78.11 51.69 78.82 52.39 79.89C53.37 81.38 57 84.25 62.43 84.25C67.86 84.25 71.49 81.38 72.47 79.89C73.17 78.82 72.72 78.11 71.66 78.11ZM51.93 60.73C51.93 63.57 50.03 65.88 47.67 65.88C45.32 65.88 43.4 63.58 43.4 60.73C43.4 57.88 45.31 55.58 47.67 55.58C50.03 55.57 51.93 57.88 51.93 60.73ZM72.93 60.73C72.93 63.57 74.83 65.88 77.2 65.88C79.55 65.88 81.46 63.58 81.46 60.73C81.46 57.88 79.55 55.58 77.2 55.58C74.83 55.57 72.93 57.88 72.93 60.73Z" fill="#262626"/>
<path d="M66.84 70.27C65.27 70.71 63.64 70.93 62.38 70.93C61.12 70.93 59.49 70.71 57.92 70.27C57.25 70.08 56.98 70.72 57.23 71.14C57.73 72.02 59.73 73.78 62.38 73.78C65.03 73.78 67.03 72.01 67.53 71.14C67.77 70.71 67.51 70.08 66.84 70.27Z" fill="#DBA689"/>
<path d="M71.27 34.43C68.04 37.54 51.98 52.01 29.85 55.78V26.11C29.85 26.11 39.4 7.16 62.32 7.16C85.24 7.16 94.8 26.59 94.8 26.59V55.78C94.8 55.78 79.78 50.02 72.24 34.61C72.1986 34.5232 72.1372 34.4474 72.0608 34.3889C71.9845 34.3303 71.8954 34.2906 71.8008 34.2731C71.7062 34.2555 71.6088 34.2606 71.5166 34.2879C71.4243 34.3151 71.3398 34.3638 71.27 34.43V34.43Z" fill="#312D2D"/>
<path d="M62.36 0L12.5 9.22L62.49 0.02L62.36 0Z" fill="#262626"/>
<path d="M62.64 0.01L62.61 0L62.49 0.02L62.64 0.05V0.01Z" fill="#424143"/>
<path d="M62.92 0L112.79 9.22L62.8 0.02L62.92 0Z" fill="#262626"/>
<path d="M112.81 11.76L112.79 9.22L62.68 16.48H62.62L12.5 9.22L12.48 11.76L32.55 15.27L30.83 20.13C34.51 21.75 47.84 27.13 62.64 27.52C77.44 27.12 90.3 21.75 93.98 20.13L92.26 15.27L112.81 11.76V11.76Z" fill="#262626"/>
<path d="M62.64 0.01L62.68 0L62.8 0.02L62.64 0.05V0.01Z" fill="#424143"/>
<path d="M62.8 0.0200043L62.64 0.0500043L62.49 0.0200043L12.5 9.22L62.61 16.48L62.64 16.47L62.68 16.48L112.79 9.22L62.8 0.0200043Z" fill="#424143"/>
<path d="M113.7 45.9C112.69 45.9 111.88 46.72 111.88 47.72V55.55C111.88 56.0327 112.072 56.4956 112.413 56.8369C112.754 57.1782 113.217 57.37 113.7 57.37C114.183 57.37 114.646 57.1782 114.987 56.8369C115.328 56.4956 115.52 56.0327 115.52 55.55V47.72C115.52 46.72 114.71 45.9 113.7 45.9V45.9ZM110.06 45.9C109.05 45.9 108.24 46.72 108.24 47.72V55.55C108.24 56.0327 108.432 56.4956 108.773 56.8369C109.114 57.1782 109.577 57.37 110.06 57.37C110.543 57.37 111.006 57.1782 111.347 56.8369C111.688 56.4956 111.88 56.0327 111.88 55.55V47.72C111.88 46.72 111.07 45.9 110.06 45.9V45.9Z" fill="#FBC11B"/>
<path d="M111.22 45.9C110.21 45.9 109.4 46.72 109.4 47.72V55.55C109.4 56.0327 109.592 56.4956 109.933 56.8369C110.274 57.1782 110.737 57.37 111.22 57.37C111.703 57.37 112.166 57.1782 112.507 56.8369C112.848 56.4956 113.04 56.0327 113.04 55.55V47.72C113.04 46.72 112.23 45.9 111.22 45.9V45.9Z" fill="#E49500"/>
<path d="M112.61 45.9C111.6 45.9 110.79 46.72 110.79 47.72V55.55C110.79 56.56 111.61 57.37 112.61 57.37C113.61 57.37 114.43 56.55 114.43 55.55V47.72C114.43 46.72 113.62 45.9 112.61 45.9Z" fill="#E49500"/>
<path d="M111.88 45.9C110.87 45.9 110.06 46.72 110.06 47.72V57.24C110.06 57.7227 110.252 58.1856 110.593 58.5269C110.934 58.8682 111.397 59.06 111.88 59.06C112.363 59.06 112.826 58.8682 113.167 58.5269C113.508 58.1856 113.7 57.7227 113.7 57.24V47.72C113.7 46.72 112.89 45.9 111.88 45.9V45.9Z" fill="#FBC11B"/>
<path d="M111.88 47.44C113.018 47.44 113.94 46.5177 113.94 45.38C113.94 44.2423 113.018 43.32 111.88 43.32C110.742 43.32 109.82 44.2423 109.82 45.38C109.82 46.5177 110.742 47.44 111.88 47.44Z" fill="#E49500"/>
<path d="M111.88 46.91C113.018 46.91 113.94 45.9877 113.94 44.85C113.94 43.7123 113.018 42.79 111.88 42.79C110.742 42.79 109.82 43.7123 109.82 44.85C109.82 45.9877 110.742 46.91 111.88 46.91Z" fill="#FBC11B"/>
<path d="M110.98 9.45V44.4H111C111.04 44.86 111.42 45.23 111.89 45.23C112.36 45.23 112.74 44.87 112.78 44.4H112.8V9.45H110.98Z" fill="#262626"/>
<path d="M72.17 128H52.49V95.7L62.33 107.7L72.17 95.7V128Z" fill="#424242"/>
</svg>
