<svg width="64" height="64" viewBox="0 0 64 64" fill="none" xmlns="http://www.w3.org/2000/svg">
<path d="M27 2L32 12L37 2H27ZM44.9 3L44.2 14.2L53.5 8L44.9 3ZM10.5 8L19.9 14.2L19.2 3L10.5 8Z" fill="#4AA9FF"/>
<path d="M20.4 62H8.60001V49.1L22.4 52.3C19.1 55.8 20.4 62 20.4 62Z" fill="#B58360"/>
<path d="M19.3 62H6.09998C6.09998 62 6.29998 55.6 4.09998 50.1L20.6 52.5C18.7 57.4 19.3 62 19.3 62ZM18 44.4H23V22.2C23 20.7 21.9 19.5 20.5 19.5C19.1 19.5 18 20.7 18 22.3V44.4V44.4ZM12.1 44.4H18V20.3C18 18.5 16.7 17 15 17C13.4 17 12 18.5 12 20.3C12.1 20.3 12.1 44.4 12.1 44.4Z" fill="#D6A57C"/>
<path d="M6.99999 44.4H12.2V21.7C12.2 20.1 11 18.8 9.59999 18.8C8.19999 18.8 6.99999 20.1 6.99999 21.7V44.4ZM4.59999 22.2C3.29999 22.2 2.29999 23.4 2.29999 24.9V44.4H6.99999V24.9C6.99999 23.4 5.89999 22.2 4.59999 22.2Z" fill="#D6A57C"/>
<path d="M20.5 19.4H20C21.2 19.6 22.1 20.8 22.1 22.1V44.4H23V22.2C23 20.7 21.9 19.4 20.5 19.4ZM15.1 17C14.9 17 14.8 17 14.7 17.1C16.1 17.3 17.2 18.7 17.2 20.3V36.4L18.1 37.4V20.3C18 18.5 16.7 17 15.1 17V17ZM9.60001 18.8H9.20001C10.4 19 11.3 20.2 11.3 21.6V36.3L12.2 37.3V21.7C12.1 20.1 11 18.8 9.60001 18.8ZM4.60001 22.2C4.40001 22.2 4.30001 22.2 4.20001 22.3C5.30001 22.5 6.10001 23.6 6.10001 24.9V36.4L7.00001 37.4V24.9C7.00001 23.4 5.90001 22.2 4.60001 22.2Z" fill="#B58360"/>
<path d="M31.4 34.2C29.9 32.5 26.9 33.3 24.8 37.7C23.3 40.7 22.9 40.1 22.1 40.3V37.6C22.1 37.6 2.2 36.3 2.2 39.3C2.2 39.3 1.3 46.7 3.2 51.3C6.1 58.2 20.9 60 25.5 48.3C26.4 46 27.7 43.5 28.7 41C30 38 33.1 36.2 31.4 34.2Z" fill="#D6A57C"/>
<path d="M30.4 33.5C33.6 35.9 27.7 40.5 24.9 47.6C20.9 57.8 9.19999 57.8 4.29999 53.1C8.79999 58.4 21.3 59.4 25.5 48.3C28.3 41.1 35.1 35.6 30.4 33.5Z" fill="#B58360"/>
<path d="M23 40.2C19.1 38.8 10.9 41.5 12 49.3C12 42 18.5 40.3 22.1 40.3C22.6 40.3 23 40.2 23 40.2ZM43.6 62H55.4V49.1L41.6 52.3C44.9 55.8 43.6 62 43.6 62" fill="#B58360"/>
<path d="M44.7 62H57.9C57.9 62 57.7 55.6 59.9 50.1L43.4 52.5C45.3 57.4 44.7 62 44.7 62ZM46 44.4H41V22.2C41 20.7 42.1 19.5 43.5 19.5C44.9 19.5 46 20.7 46 22.3V44.4V44.4ZM51.9 44.4H46V20.3C46 18.5 47.3 17 49 17C50.6 17 52 18.5 52 20.3V44.4H51.9Z" fill="#D6A57C"/>
<path d="M57 44.4H51.8V21.7C51.8 20.1 53 18.8 54.4 18.8C55.8 18.8 57 20.1 57 21.7V44.4ZM59.4 22.2C60.7 22.2 61.7 23.4 61.7 24.9V44.4H57V24.9C57 23.4 58.1 22.2 59.4 22.2Z" fill="#D6A57C"/>
<path d="M43.5 19.4H44C42.8 19.6 41.9 20.8 41.9 22.1V44.4H41V22.2C41 20.7 42.1 19.4 43.5 19.4ZM48.9 17C49.1 17 49.2 17 49.3 17.1C47.9 17.3 46.8 18.7 46.8 20.3V36.4L45.9 37.4V20.3C46 18.5 47.3 17 48.9 17ZM54.4 18.8H54.8C53.6 19 52.7 20.2 52.7 21.6V36.3L51.8 37.3V21.7C51.9 20.1 53 18.8 54.4 18.8ZM59.4 22.2C59.6 22.2 59.7 22.2 59.8 22.3C58.7 22.5 57.9 23.6 57.9 24.9V36.4L57 37.4V24.9C57 23.4 58.1 22.2 59.4 22.2Z" fill="#B58360"/>
<path d="M32.6 34.2C34.1 32.5 37.1 33.3 39.2 37.7C40.7 40.7 41.1 40.1 41.9 40.3V37.6C41.9 37.6 61.8 36.3 61.8 39.3C61.8 39.3 62.7 46.7 60.8 51.3C57.9 58.2 43.1 60 38.5 48.3C37.6 46 36.3 43.5 35.3 41C34 38 30.9 36.2 32.6 34.2" fill="#D6A57C"/>
<path d="M33.6 33.5C30.4 35.9 36.3 40.5 39.1 47.6C43.1 57.8 54.8 57.8 59.7 53.1C55.2 58.4 42.7 59.4 38.5 48.3C35.7 41.1 28.9 35.6 33.6 33.5Z" fill="#B58360"/>
<path d="M41 40.2C44.9 38.8 53.1 41.5 52 49.3C52 42 45.5 40.3 41.9 40.3C41.4 40.3 41 40.2 41 40.2Z" fill="#B58360"/>
</svg>
