<svg width="64" height="64" viewBox="0 0 64 64" fill="none" xmlns="http://www.w3.org/2000/svg">
<path d="M21.4 29C17.6 43.7 15.9 56.7 24.2 56.7C33 56.7 32.1 43.7 32.1 28.7C32.1 13.7 32.5 2 28 2C23.1 2 25.1 14.7 21.4 29Z" fill="#F2C19B"/>
<path d="M21.5 47.3C31.1 47.3 31.4 42.6 31.4 27.7C31.4 16.1 31.7 6.30001 29.5 2.60001C32.8 5.10001 32.3 15.8 32.3 28.8C32.3 43.7 35.8 56.8 26.2 56.8C24.1 56.7 20 47.3 21.5 47.3" fill="#E0A372"/>
<path d="M36 2C31.4 2 31.8 13.9 31.8 28.8C31.8 43.7 31 56.8 39.7 56.8C48 56.8 46.3 43.7 42.5 29.1C38.9 14.7 40.9 2 36 2Z" fill="#F2C19B"/>
<path d="M37.8 56.7C28.2 56.7 31.7 43.6 31.7 28.7C31.7 15.7 31.3 5 34.5 2.5C32.3 6.2 32.6 16 32.6 27.6C32.6 42.5 32.8 47.2 42.5 47.2C44 47.3 39.9 56.7 37.8 56.7" fill="#E0A372"/>
<path d="M13.1 47.7L20.7 61L29.3 56.5L19 40C19 40 16.4 46.4 13.1 47.7Z" fill="#F2C19B"/>
<path d="M20.9 38.2C19.9 39.8 19.5 47.1 14.8 49L20.3 60.2C20.3 60.2 26.4 58.7 28.8 57.2C35.5 53.1 27.9 48.2 31.8 39.1C34 34 30 22 25.2 22C20.4 22 22.6 28.9 22.2 30.7C21.6 32.8 21.8 35.5 20.9 38.2Z" fill="#FED0AC"/>
<path d="M28.5 56.4C35.2 52.3 26.9 47.4 30.8 38.4C32.5 34.4 30.3 25.9 27 22.6C30.9 25.1 33.9 34.5 31.9 39.1C27.9 48.1 36.4 52.9 29.5 57.1C29 57.4 25.2 59.1 20.8 61L20.1 59.7C24.9 58.3 28.1 56.6 28.5 56.4Z" fill="#E0A372"/>
<path d="M45 40L34.7 56.5L43.3 61L50.9 47.8C47.6 46.4 45 40 45 40Z" fill="#F2C19B"/>
<path d="M41.9 30.6C41.4 28.8 43.7 21.9 38.9 21.9C34.1 21.9 30.1 33.9 32.3 39C36.2 48.1 28.6 53 35.3 57.1C37.7 58.6 43.8 60.1 43.8 60.1L49.2 49C44.5 47 44.1 39.8 43.1 38.2C42.2 35.5 42.4 32.8 41.9 30.6Z" fill="#FED0AC"/>
<path d="M43.9 59.7L43.3 61C38.9 59.1 35.1 57.4 34.6 57.1C27.7 52.8 36.2 48.1 32.2 39.1C30.2 34.5 33.2 25 37.1 22.6C33.7 25.9 31.5 34.3 33.3 38.4C37.2 47.5 28.9 52.3 35.6 56.4C35.9 56.6 39.1 58.3 43.9 59.7" fill="#E0A372"/>
<path d="M2 55.3V62H24.2C26.7 57.2 12.6 46.4 12.6 46.4L2 55.3ZM51.4 46.4C51.4 46.4 37.3 57.2 39.8 62H62V55.3L51.4 46.4Z" fill="#47B892"/>
</svg>
