<svg width="128" height="128" viewBox="0 0 128 128" fill="none" xmlns="http://www.w3.org/2000/svg">
<path d="M106.91 66.04C106.91 66.04 114.78 67.4 114.78 75.88C114.78 83.36 109.04 86.31 103.3 86.31V66.04H106.91ZM21.09 66.04C21.09 66.04 13.22 67.4 13.22 75.88C13.22 83.36 18.96 86.31 24.7 86.31V66.04H21.09Z" fill="#C48E6A"/>
<path d="M51.91 49.26C51.91 62.62 42.37 73.44 30.6 73.44C18.83 73.44 9.89 59.96 10.87 43.95C11.8 28.6 23.16 24.56 34.93 24.56C46.7 24.56 51.91 35.91 51.91 49.26V49.26ZM76.09 49.26C76.09 62.62 85.63 73.44 97.4 73.44C109.17 73.44 118.11 59.95 117.14 43.94C116.21 28.59 104.85 24.55 93.08 24.55C81.31 24.55 76.09 35.91 76.09 49.26Z" fill="#E0E0E0"/>
<path d="M21.22 73.76C24.64 114.88 45.83 121.95 64 121.95V12.3C25.8 12.3 18.16 36.96 21.22 73.76ZM106.78 73.76C103.36 114.88 82.17 121.95 64 121.95V12.3C102.2 12.3 109.84 36.96 106.78 73.76Z" fill="#E0BB95"/>
<path d="M49.91 77.19C49.91 81 47.36 84.09 44.2 84.09C41.04 84.09 38.47 81 38.47 77.19C38.47 73.37 41.04 70.28 44.2 70.28C47.36 70.28 49.91 73.37 49.91 77.19V77.19ZM78.08 77.19C78.08 81 80.64 84.09 83.8 84.09C86.95 84.09 89.52 81 89.52 77.19C89.52 73.37 86.95 70.28 83.8 70.28C80.64 70.28 78.08 73.37 78.08 77.19Z" fill="#5D4037"/>
<path d="M76.38 100.52H51.62C50.2 100.52 49.59 101.47 50.53 102.9C51.84 104.9 56.72 108.75 64 108.75C71.28 108.75 76.16 104.9 77.47 102.9C78.41 101.47 77.8 100.52 76.38 100.52Z" fill="#513F35"/>
<path d="M69.98 89.99C67.87 90.59 65.69 90.88 64 90.88C62.31 90.88 60.13 90.59 58.02 89.99C57.12 89.73 56.77 90.59 57.09 91.16C57.76 92.34 60.45 94.71 64 94.71C67.55 94.71 70.24 92.34 70.91 91.16C71.24 90.59 70.88 89.74 69.98 89.99V89.99Z" fill="#C48E6A"/>
<path opacity="0.5" d="M81.79 52.71C81.67 52.71 81.56 52.7 81.44 52.67C69.92 49.9 57.74 49.91 46.22 52.67C45.41 52.86 44.6 52.37 44.41 51.56C44.22 50.75 44.71 49.94 45.52 49.75C57.5568 46.87 70.1032 46.87 82.14 49.75C82.94 49.94 83.44 50.75 83.25 51.56C83.09 52.25 82.47 52.71 81.79 52.71V52.71ZM83.8 61.88C83.68 61.88 83.57 61.87 83.45 61.84C70.5513 58.76 57.1087 58.76 44.21 61.84C43.4 62.03 42.59 61.54 42.4 60.73C42.21 59.92 42.7 59.11 43.51 58.92C56.8689 55.73 70.7911 55.73 84.15 58.92C84.95 59.11 85.45 59.92 85.26 60.73C85.1 61.42 84.48 61.88 83.8 61.88ZM40.25 109.65C40.0277 109.651 39.808 109.603 39.6066 109.509C39.4052 109.415 39.2273 109.277 39.0857 109.106C38.944 108.935 38.8422 108.734 38.7876 108.518C38.7331 108.303 38.727 108.078 38.77 107.86C41.05 96.46 49.69 91.77 50.06 91.57C50.79 91.18 51.7 91.46 52.09 92.19C52.48 92.92 52.2 93.83 51.47 94.22C51.38 94.27 43.7 98.5 41.71 108.44C41.58 109.15 40.95 109.65 40.25 109.65V109.65ZM42.75 90.55C41.92 90.55 41.25 89.88 41.25 89.05C41.25 88.22 41.92 87.55 42.75 87.55C48.13 87.55 50.41 83.43 50.43 83.39C50.6216 83.0461 50.9409 82.7914 51.3187 82.6809C51.6966 82.5705 52.1028 82.6131 52.4495 82.7996C52.7962 82.9861 53.0556 83.3014 53.1717 83.6776C53.2878 84.0538 53.2513 84.4605 53.07 84.81C52.94 85.04 49.89 90.55 42.75 90.55ZM87.42 109.65C86.72 109.65 86.09 109.16 85.95 108.44C83.95 98.42 76.28 94.26 76.2 94.22C75.47 93.83 75.19 92.92 75.58 92.19C75.97 91.46 76.88 91.18 77.61 91.57C77.98 91.76 86.62 96.46 88.9 107.86C89.06 108.67 88.54 109.46 87.72 109.62C87.61 109.64 87.51 109.65 87.42 109.65V109.65ZM84.92 90.55C77.77 90.55 74.73 85.05 74.6 84.81C74.21 84.08 74.48 83.17 75.21 82.78C75.94 82.39 76.85 82.66 77.24 83.38C77.35 83.57 79.63 87.55 84.92 87.55C85.75 87.55 86.42 88.22 86.42 89.05C86.42 89.88 85.75 90.55 84.92 90.55Z" fill="#C48E6A"/>
</svg>
