<svg width="64" height="64" viewBox="0 0 64 64" fill="none" xmlns="http://www.w3.org/2000/svg">
<path d="M5.915 60.99C8.595 59.6 12.46 56.875 17.57 52.66L11.52 46.66C7.355 51.72 4.63 55.585 3.24 58.315C4.725 58.36 5.865 59.55 5.915 60.99Z" fill="#BDBDBD"/>
<path d="M2.44 61.78C2.835 62.175 3.73 62.03 5.07 61.385C5.32 61.285 5.615 61.135 5.865 60.99C5.84296 60.2862 5.55353 59.6173 5.05563 59.1194C4.55773 58.6215 3.88879 58.332 3.185 58.31C3.035 58.61 2.885 58.855 2.79 59.105C2.195 60.445 2.095 61.385 2.44 61.78V61.78Z" fill="#616161"/>
<path d="M5.955 56.755C5.875 56.825 5.79 56.895 5.705 56.97C5.55 57.1 5.365 57.24 5.165 57.19C5.255 56.825 5.45 56.495 5.64 56.17C7.03 53.82 8.045 52.025 10.055 50.14C10.19 50.015 10.34 49.885 10.52 49.855C10.815 49.81 11.075 50.05 11.235 50.295C11.4 50.545 11.665 51.02 11.62 51.335C11.575 51.67 11.205 51.87 10.955 52.095C9.13 53.74 7.825 55.14 5.955 56.755V56.755Z" fill="#EEEEEE"/>
<path d="M53.935 3.89C53.43 3.445 52.535 2.63 52.535 2.63C52.03 2.185 51.37 1.965 50.68 2.005C49.99 2.05 49.365 2.35 48.93 2.84C46.935 4.79 44.935 6.74 42.94 8.69C40.22 11.35 33.625 17.815 33.185 18.365C32.745 18.92 33.04 19.23 33.09 19.285C33.75 20.01 34.935 20.11 35.8 19.64C36.66 19.17 37.205 18.235 37.365 17.265C37.47 16.635 37.51 16.32 37.975 15.91C38.145 15.76 47.62 6.915 49.07 5.265C49.31 4.99 50.03 4.415 50.82 5.02C50.945 5.115 53.685 7.425 53.685 7.425L55.43 5.445L55.425 5.33C55.415 5.195 55.415 5.195 53.935 3.89V3.89Z" fill="#BDBDBD"/>
<path d="M36.7 27.5L32.88 23.68C17.31 39.455 11.835 45.51 10.49 47.245C10.255 47.55 10.28 47.98 10.555 48.255L15.99 53.495C16.265 53.77 16.695 53.795 17 53.56C18.735 52.215 24.8 46.945 40.57 31.375C40.52 31.32 36.7 27.5 36.7 27.5V27.5Z" fill="#1565C0"/>
<path d="M52.455 5.235C52.145 4.755 51.39 4.075 50.87 3.84C50.275 3.575 49.835 3.835 49.455 4.17C48.785 4.76 44.33 9.385 43.355 10.6C43.245 10.74 43.13 10.895 43.13 11.07C45.675 8.655 48.265 6.27 49.09 5.555C49.72 5.01 50.33 4.525 50.825 5.02C50.875 5.07 51.22 5.345 51.845 5.87L52.455 5.235Z" fill="#757575"/>
<path d="M61.555 8.50001C62.17 7.61501 61.305 5.67001 59.92 4.33001C58.53 2.99001 56.635 2.06001 55.75 2.69501C54.87 3.33001 44.04 10.88 31.54 23.98C31.195 24.375 31.195 24.97 31.54 25.32L38.98 32.76C39.325 33.105 39.925 33.155 40.32 32.76C53.37 20.21 60.945 9.38501 61.555 8.50001V8.50001Z" fill="#1565C0"/>
<path d="M14.68 47.02C14.125 47.455 12.48 48.235 13.745 46.255C14.045 45.79 15.06 44.535 15.49 44.03C17.145 42.07 26.625 32.485 28.31 30.715C29.68 29.275 30.89 28.925 31.285 29.925C31.555 30.615 30.995 31.415 28.075 34.525C25.645 37.105 17.555 44.745 14.68 47.02ZM41.865 20.475C41.865 20.475 40.11 22.595 38.835 21.52C37.825 20.665 40.165 18.64 40.165 18.64C40.225 18.575 48.25 11.035 50.635 9.12001C51.615 8.33001 52.865 7.45001 53.21 7.75501C53.555 8.06001 52.985 9.03001 51.48 10.525C49.97 12.02 41.92 20.415 41.865 20.475Z" fill="#2196F3"/>
<path d="M36.165 16.25C35.775 16.505 35.93 17.67 35.69 18.265C35.495 18.74 35.5 18.99 35.9 18.87C36.325 18.74 36.8 18.1 36.8 17.105C36.795 16.62 36.57 15.98 36.165 16.25Z" fill="#EEEEEE"/>
<path d="M52.025 5.45999L51.575 5.80999C52.625 6.45499 53.95 7.44999 55.315 8.81499C55.92 9.41999 56.755 10.385 57.045 10.97C57.315 11.525 57.415 12.375 57.185 13.17C56.935 14.035 56.54 14.425 56.38 15.305C57.175 14.32 58.78 12.265 58.78 12.265C58.78 12.265 58.085 10.48 55.71 8.09999C53.335 5.71999 52.025 5.45999 52.025 5.45999V5.45999Z" fill="#0D47A1"/>
<path d="M59.92 4.32999C58.845 3.29499 57.47 2.50499 56.495 2.48999C56.495 2.48999 58.25 3.42999 59.26 4.74499C60.33 6.13499 61.025 7.39999 60.545 8.19499C59.745 9.34499 52.655 19.41 40.155 31.525C40.1041 31.5748 40.0429 31.6126 39.9757 31.6359C39.9084 31.6592 39.8369 31.6673 39.7661 31.6597C39.6954 31.652 39.6272 31.6288 39.5665 31.5917C39.5058 31.5546 39.454 31.5045 39.415 31.445C38.705 30.35 37.755 29.195 36.335 27.78C34.305 25.75 32.995 24.835 31.47 24.065C31.47 24.065 31.12 24.25 31.03 24.865C30.97 25.26 31.005 25.58 31.005 25.58L31.435 25.185C32.63 25.855 34.085 26.935 35.635 28.49C36.3 29.155 36.9 29.825 37.42 30.47C37.49 30.6 38.01 31.7 36.945 33.405C36.945 33.405 36.785 33.61 36.545 33.93C24.03 46.205 18.21 51.44 17.065 52.22C15.865 53.035 15.23 52.76 15.23 52.76C15.38 52.91 15.71 53.28 16.08 53.57C16.455 53.865 16.86 53.665 16.995 53.555C18.445 52.43 22.915 48.57 33.53 38.265C33.545 38.25 33.56 38.24 33.57 38.225C35.13 36.71 36.825 35.055 38.66 33.25C38.67 33.25 38.985 33.285 39.375 33.225C39.985 33.135 40.215 32.85 40.215 32.85V32.845C40.25 32.82 40.285 32.79 40.32 32.76C53.37 20.21 60.94 9.38499 61.555 8.49999C62.17 7.61499 61.31 5.66999 59.92 4.32999V4.32999Z" fill="#0D47A1"/>
<path d="M38.54 25.585C37.005 24.05 35.22 22.645 33.625 21.83C33.625 21.83 33.23 21.805 32.86 22.215C32.58 22.525 32.515 22.965 32.515 22.965C33.725 23.5 35.495 24.645 37.49 26.635C38.99 28.135 40.21 29.715 40.925 31.095C41.07 31.375 41.18 31.62 41.265 31.845C41.265 31.845 41.705 31.85 42.075 31.53C42.49 31.165 42.405 30.725 42.405 30.725C41.615 29.07 40.15 27.195 38.54 25.585V25.585Z" fill="#FFC107"/>
<path d="M57.575 6.55501C56.54 5.52001 55.39 4.55001 54.265 3.77501C54.265 3.77501 53.495 3.48001 52.79 4.13001C52.085 4.78001 52.03 5.46501 52.03 5.46501C53.08 6.11001 54.335 7.07001 55.7 8.43501C56.975 9.71001 58.045 11.05 58.78 12.27C58.78 12.27 59.56 12.21 60.11 11.555C60.66 10.9 60.465 10.03 60.465 10.03C59.675 8.84501 58.66 7.64001 57.575 6.55501V6.55501Z" fill="#BDBDBD"/>
<path d="M53.595 4.38501C53.33 4.44001 53.08 4.64501 53.065 4.91501C53.05 5.19001 53.27 5.41001 53.475 5.59501C54.115 6.17501 54.78 6.76501 55.6 7.04001C55.78 7.10001 56.015 7.13501 56.14 6.99001C56.22 6.90001 56.225 6.76501 56.215 6.64501C56.175 6.15001 55.925 5.69501 55.6 5.32001C55.09 4.74001 54.42 4.21501 53.595 4.38501V4.38501Z" fill="#EEEEEE"/>
</svg>
