<svg width="21" height="21" viewBox="0 0 21 21" fill="none" xmlns="http://www.w3.org/2000/svg">
<g clip-path="url(#clip0_31_2)">
<path d="M15.4114 13.5765C16.6823 11.8423 17.2515 9.69214 17.0052 7.55625C16.7588 5.42037 15.7151 3.45625 14.0828 2.05685C12.4505 0.657453 10.35 -0.0740258 8.2016 0.00875776C6.05315 0.0915413 4.01518 0.982482 2.49542 2.50334C0.975652 4.02419 0.0861698 6.06279 0.00492365 8.2113C-0.0763225 10.3598 0.656659 12.4598 2.05723 14.0911C3.45779 15.7223 5.42266 16.7646 7.55872 17.0095C9.69478 17.2543 11.8445 16.6835 13.5778 15.4114H13.5765C13.6159 15.4639 13.6579 15.5137 13.7051 15.5623L18.7583 20.6154C19.0044 20.8617 19.3382 21.0001 19.6864 21.0003C20.0346 21.0004 20.3685 20.8622 20.6148 20.6161C20.8611 20.37 20.9995 20.0361 20.9996 19.688C20.9997 19.3398 20.8615 19.0058 20.6154 18.7596L15.5623 13.7064C15.5154 13.6589 15.4649 13.6151 15.4114 13.5752V13.5765ZM15.75 8.53124C15.75 9.47922 15.5633 10.4179 15.2005 11.2937C14.8377 12.1696 14.306 12.9653 13.6357 13.6357C12.9654 14.306 12.1696 14.8377 11.2938 15.2005C10.4179 15.5633 9.47923 15.75 8.53125 15.75C7.58327 15.75 6.64458 15.5633 5.76876 15.2005C4.89294 14.8377 4.09715 14.306 3.42683 13.6357C2.7565 12.9653 2.22477 12.1696 1.862 11.2937C1.49922 10.4179 1.3125 9.47922 1.3125 8.53124C1.3125 6.61671 2.07305 4.7806 3.42683 3.42682C4.78061 2.07304 6.61672 1.31249 8.53125 1.31249C10.4458 1.31249 12.2819 2.07304 13.6357 3.42682C14.9895 4.7806 15.75 6.61671 15.75 8.53124V8.53124Z" fill="black"/>
</g>
<defs>
<clipPath id="clip0_31_2">
<rect width="21" height="21" fill="white"/>
</clipPath>
</defs>
</svg>
